<svg xmlns="http://www.w3.org/2000/svg" xmlns:xlink="http://www.w3.org/1999/xlink" viewBox="0 0 114.39 131.49"><defs><style>.a{isolation:isolate;}.b,.f{fill:#0faaa0;}.c{fill:#fff;}.d{opacity:0.3;fill:url(#a);}.d,.e{mix-blend-mode:overlay;}.e{opacity:0.5;}.f{stroke:#fff;stroke-miterlimit:10;}</style><linearGradient id="a" x1="1632.4" y1="720.91" x2="1718.11" y2="806.62" gradientTransform="translate(1732.47 829.51) rotate(180)" gradientUnits="userSpaceOnUse"><stop offset="0" stop-color="#fff" stop-opacity="0.1"/><stop offset="0.84" stop-color="#282726"/></linearGradient></defs><title>Asset 47</title><g class="a"><path class="b" d="M58.13,3.27a1.65,1.65,0,0,0-1.91,0c-3.8,2.24-7.63,4.43-11.46,6.63Q24.44,21.63,4.09,33.32a2.52,2.52,0,0,0-1.45,2.5q.06,29.93,0,59.86A2.42,2.42,0,0,0,4,98.09c5,2.82,9.94,5.69,14.9,8.56q18.65,10.77,37.3,21.57a1.7,1.7,0,0,0,1.92,0q11.78-6.84,23.58-13.64,14.3-8.26,28.62-16.5a2.32,2.32,0,0,0,1.37-2.31c0-10,0-19.92,0-29.88s0-19.84,0-29.77a3,3,0,0,0-1.78-3q-14.77-8.43-29.49-17Q69.31,9.74,58.13,3.27Z"/><path class="c" d="M45.36,37.48H44.7a6.7,6.7,0,0,0-2,.22,3.16,3.16,0,0,0-1.28.76,2.58,2.58,0,0,0-.67,1.12,5.33,5.33,0,0,0-.23,1.6v.59h4.48v1.55H40.57c0,2.84,0,5.49,0,7.93s0,3.72,0,3.87H38.53c0-.15,0-1.38,0-3.72s0-5,0-8.08H36V41.77h2.6v-.64a6.63,6.63,0,0,1,.3-2.07A4.74,4.74,0,0,1,40,37.34a4.85,4.85,0,0,1,1.75-1.12,7.33,7.33,0,0,1,2.69-.43h.72Z"/><path class="c" d="M50,39.22H47.66V37H50Zm-.12,15.9H47.78c0-.15,0-1,0-2.6s0-2.91,0-3.94v-3c0-1.09,0-2.36,0-3.82h2.08c0,1.27,0,2.45,0,3.56s0,2.08,0,2.94c0,2,0,3.69,0,4.93S49.86,55.08,49.86,55.12Z"/><path class="c" d="M62.09,51.25A3.2,3.2,0,0,1,61.61,53a3.77,3.77,0,0,1-1.24,1.24,6.11,6.11,0,0,1-1.91.76,10.81,10.81,0,0,1-2.44.26c-.43,0-.87,0-1.34-.06l-.78-.07-.08-1.73.92.07c.53,0,1.06.06,1.58.06.31,0,.71,0,1.19-.08a4.06,4.06,0,0,0,1.2-.29,2.37,2.37,0,0,0,1-.71,1.65,1.65,0,0,0,.31-1,1.33,1.33,0,0,0-.27-.87,3.47,3.47,0,0,0-.77-.66,9.3,9.3,0,0,0-1.44-.75A16.9,16.9,0,0,1,56,48.37a4.17,4.17,0,0,1-1.35-1.28,3.19,3.19,0,0,1-.47-1.72,3,3,0,0,1,.54-1.75,3.79,3.79,0,0,1,1.43-1.25,5.12,5.12,0,0,1,1.72-.56,11.63,11.63,0,0,1,1.83-.14l1.32,0,.6,0,.14,1.75c-.06,0-.33,0-.81,0s-1-.05-1.58-.05a6.26,6.26,0,0,0-1.16.1,3.62,3.62,0,0,0-.93.31,1.83,1.83,0,0,0-.81.7,1.54,1.54,0,0,0-.24.79,1.32,1.32,0,0,0,.34.91,3.18,3.18,0,0,0,.81.64c.36.21.85.46,1.48.75s1.07.53,1.36.7a4.76,4.76,0,0,1,1.4,1.29A2.9,2.9,0,0,1,62.09,51.25Z"/><path class="c" d="M76.75,55.12H74.66c0-.27,0-1.06,0-2.38s0-2.2,0-2.62,0-1.13,0-2,0-1.54,0-2A3.65,3.65,0,0,0,74.11,44a2.29,2.29,0,0,0-1.87-.66,5.68,5.68,0,0,0-1.93.45A16.25,16.25,0,0,0,67.83,45l.06,10.14H65.8c0-.35,0-1.73,0-4.15s0-4.42,0-6c0-1,0-2.3,0-3.86s0-3.33,0-5.34h2.09l-.06,7.5h0a19.48,19.48,0,0,1,3.08-1.46A6.66,6.66,0,0,1,73,41.43a3.59,3.59,0,0,1,2.71,1.06,4,4,0,0,1,1,2.91c0,1.11,0,2.06,0,2.87s0,1.45,0,1.95q0,1.2,0,2.76C76.72,54,76.74,54.73,76.75,55.12Z"/><path class="c" d="M40.52,80.6c0,2.18,0,4,0,5.33s0,2.11,0,2.21l-1.22.1c-.73.06-1.67.09-2.83.09a12.34,12.34,0,0,1-2.17-.2,7.53,7.53,0,0,1-1.89-.57,4.43,4.43,0,0,1-1.7-1.33,3.19,3.19,0,0,1-.66-2A3.27,3.27,0,0,1,30.79,82a5.52,5.52,0,0,1,2.15-1.48,12.27,12.27,0,0,1,2.28-.64,29.38,29.38,0,0,1,3.27-.43A3.59,3.59,0,0,0,38,77.79a2.66,2.66,0,0,0-1.28-1,5.28,5.28,0,0,0-1.29-.34,13.38,13.38,0,0,0-1.66-.09c-.39,0-.73,0-1,0l-1.12.07.21-1.76.78,0c.39,0,.93,0,1.6,0a10.73,10.73,0,0,1,2.78.32,4.64,4.64,0,0,1,2,1,4.36,4.36,0,0,1,1.14,1.69A8.76,8.76,0,0,1,40.52,80.6Zm-2,3.18V82.64c0-.45,0-1,0-1.58-.39,0-1.07.1-2,.23a11,11,0,0,0-2.44.59,3.7,3.7,0,0,0-1.31.83,1.81,1.81,0,0,0-.58,1.37,2.09,2.09,0,0,0,.49,1.44,3,3,0,0,0,1.33.84,6.67,6.67,0,0,0,1.43.32,12.66,12.66,0,0,0,1.66.1h.64l.81,0v-.87C38.5,85.36,38.5,84.66,38.5,83.78Z"/><path class="c" d="M52.48,86.48l-.24,1.67-.46,0h-.62a6.37,6.37,0,0,1-4.09-1.12,4.21,4.21,0,0,1-1.38-3.46c0-1,0-2,0-3.14s0-2.5,0-4.15H43.51V74.77h2.33V71.65h1.92v3.12h4.72v1.55H47.76c0,.18,0,.73,0,1.64s0,1.59,0,2v3.27a3,3,0,0,0,.92,2.48,4.46,4.46,0,0,0,2.85.75h1Z"/><path class="c" d="M58,88.12H56c0-.11,0-1.4,0-3.86s0-4.51,0-6.14c0-1,0-2.36,0-4s0-3.39,0-5.37H58c0,1.35,0,2.92,0,4.7s0,3.28,0,4.5c0,2.66,0,5,0,7S58,88,58,88.12Z"/><path class="c" d="M72.17,80.6c0,2.18,0,4,0,5.33s0,2.11,0,2.21l-1.23.1q-1.1.09-2.82.09a12.45,12.45,0,0,1-2.18-.2A7.32,7.32,0,0,1,64,87.56a4.47,4.47,0,0,1-1.71-1.33,3.47,3.47,0,0,1,.12-4.2,5.48,5.48,0,0,1,2.14-1.48,12.18,12.18,0,0,1,2.29-.64,28.87,28.87,0,0,1,3.26-.43,3.48,3.48,0,0,0-.51-1.69,2.71,2.71,0,0,0-1.28-1,5.54,5.54,0,0,0-1.29-.34,13.49,13.49,0,0,0-1.66-.09c-.4,0-.74,0-1,0l-1.13.07.21-1.76.78,0c.4,0,.93,0,1.61,0a10.65,10.65,0,0,1,2.77.32,4.73,4.73,0,0,1,2,1,4.34,4.34,0,0,1,1.13,1.69A8.76,8.76,0,0,1,72.17,80.6Zm-2,3.18V82.64c0-.45,0-1,0-1.58-.39,0-1.06.1-2,.23a11,11,0,0,0-2.44.59,3.7,3.7,0,0,0-1.31.83,1.84,1.84,0,0,0-.57,1.37,2.09,2.09,0,0,0,.48,1.44,3,3,0,0,0,1.34.84,6.54,6.54,0,0,0,1.43.32,12.4,12.4,0,0,0,1.65.1h.65l.8,0c0-.06,0-.35,0-.87Z"/><path class="c" d="M84.14,84.25A3.29,3.29,0,0,1,83.67,86a3.77,3.77,0,0,1-1.24,1.24,6.2,6.2,0,0,1-1.91.76,10.87,10.87,0,0,1-2.44.26c-.43,0-.88,0-1.34-.06L76,88.12l-.08-1.73.91.07q.79.06,1.59.06c.31,0,.7,0,1.19-.08a4.06,4.06,0,0,0,1.2-.29,2.33,2.33,0,0,0,1-.71,1.65,1.65,0,0,0,.32-1,1.28,1.28,0,0,0-.28-.87,3.4,3.4,0,0,0-.76-.66,9.47,9.47,0,0,0-1.45-.75A15.4,15.4,0,0,1,78,81.37a4.17,4.17,0,0,1-1.35-1.28,3.11,3.11,0,0,1-.47-1.72,3.06,3.06,0,0,1,.53-1.75,3.89,3.89,0,0,1,1.44-1.25,5.12,5.12,0,0,1,1.72-.56,11.63,11.63,0,0,1,1.83-.14l1.32,0,.59,0,.15,1.75c-.06,0-.33,0-.81,0s-1,0-1.58,0a6.19,6.19,0,0,0-1.16.1,3.5,3.5,0,0,0-.93.31,1.83,1.83,0,0,0-.81.7,1.46,1.46,0,0,0-.25.79,1.33,1.33,0,0,0,.35.91,3.13,3.13,0,0,0,.8.64c.36.21.86.46,1.48.75a14.12,14.12,0,0,1,1.36.7,4.68,4.68,0,0,1,1.41,1.29A3,3,0,0,1,84.14,84.25Z"/><path class="d" d="M56.26,128.22a1.67,1.67,0,0,0,1.91,0c3.8-2.23,7.63-4.42,11.46-6.62Q90,109.87,110.29,98.16a2.5,2.5,0,0,0,1.46-2.49q-.06-29.92,0-59.86a2.42,2.42,0,0,0-1.4-2.42c-5-2.81-9.94-5.69-14.9-8.55Q76.8,14.05,58.15,3.26a1.7,1.7,0,0,0-1.92,0Q44.44,10.12,32.65,16.92,18.36,25.17,4,33.41a2.34,2.34,0,0,0-1.37,2.32c0,10,0,19.92,0,29.88s0,19.84,0,29.76a3,3,0,0,0,1.78,3c9.85,5.62,19.66,11.3,29.49,17Q45.09,121.76,56.26,128.22Z"/><g class="e"><path class="c" d="M10.5,66.45l2.3-.19.32-2c-.77-.3-1.17-1.32-2.22-1.21a2.54,2.54,0,0,1,1-2.49C13.29,59.76,14.66,59,16,58.3q3.71-1.95,7.45-3.83a26,26,0,0,1,4.77-2.13A13.53,13.53,0,0,0,31.91,51c.78-.46,2-.22,3-.35a15.46,15.46,0,0,0,2.33-.45A3.36,3.36,0,0,0,39,48.67a6.27,6.27,0,0,1,4.27-3.08.79.79,0,0,0,.39-.25l1.75-1.66a2.77,2.77,0,0,1,4.17-.12c.33.28.64.59,1,.9a22.5,22.5,0,0,1,2.7-1.83,9,9,0,0,1,3-1,24.51,24.51,0,0,1,4.92-.09,8.07,8.07,0,0,1,3,1A23.8,23.8,0,0,0,69.27,45a3.07,3.07,0,0,1,2.38,3,.76.76,0,0,0,.37.57c.89.37,1.82.69,2.74,1-.65-.62-1.32-1.22-2-1.85a10.62,10.62,0,0,1-3.46-7.34c0-2.58,1.19-4,3.83-4.24,3.88-.37,7.77-.75,11.67-.94a34.44,34.44,0,0,1,9.66.51,3.36,3.36,0,0,1,1.3.7A29.87,29.87,0,0,1,98,38.62c.93,1,.74,2.28.7,3.47A6.34,6.34,0,0,1,97,45.89c-1.75,2.06-3.57,4-6.15,5.07-1.29.51-2.65.83-3.91,1.22,2.12.25,3.31,2,4.56,3.56.83-.83.83-.83,2.64-1a8.24,8.24,0,0,0-.32-1,2.24,2.24,0,0,1,.36-2.3c1.11-1.8,2.87-2.21,4.78-2.25a6.55,6.55,0,0,1,2.2.31c1.65.55,2.24,2,2.43,3.51a3.9,3.9,0,0,1-3.59,4.3c-.51,0-1,.11-1.62.17a2.21,2.21,0,0,0,.3.44,3.79,3.79,0,0,1,1,3,1.92,1.92,0,0,1-1.44,1.5,14,14,0,0,1-1.44-.14c-.82-.1-1.11.13-1.06.93.08,1.07.2,2.14.31,3.3a6.76,6.76,0,0,0,1.1-.36,1.52,1.52,0,0,1,1.65.28c1.41,1,1.32,1.79.73,3.31A10.71,10.71,0,0,1,99,70.87a24.55,24.55,0,0,1,2.38.78,4,4,0,0,1,1.43,6.5,6.77,6.77,0,0,1-6.1,2.1A4.68,4.68,0,0,1,94.3,79a2.66,2.66,0,0,1-.55-1.71c0-1.06.09-2.13.14-3.12l-2.36-.82c-.68.78-1.13,2-2.36,2.51s-2.31.8-3.44,1.18a30.38,30.38,0,0,1,3.56.59,11.38,11.38,0,0,1,3,1.36,16.52,16.52,0,0,1,5.5,5.77,9.48,9.48,0,0,1,1,3.26,8,8,0,0,1-.19,4.14A3.28,3.28,0,0,1,97.2,93.9a18.54,18.54,0,0,1-7,2.19,45.66,45.66,0,0,1-7.21.19c-3-.11-5.95-.4-8.92-.7a10.21,10.21,0,0,1-2.43-.71,3.45,3.45,0,0,1-2-3.53A28,28,0,0,1,71.18,84a.8.8,0,0,0,0-.23c-1.68.79-3.36,1.5-5,2.36a16.31,16.31,0,0,1-12.47,1.1A4,4,0,0,1,51.51,85c-.09-.15-.16-.3-.29-.53A5.3,5.3,0,0,1,48,86.24a2.94,2.94,0,0,1-2.36-.56c-.15-.1-.26-.27-.4-.38a8.34,8.34,0,0,0-2.49-1.88,9.44,9.44,0,0,1-4-3,5.69,5.69,0,0,0-3.67-1.79c-.74-.13-1.5-.19-2.25-.31-.33-.06-.76-.09-.95-.3a1.51,1.51,0,0,0-1.77-.41,2.88,2.88,0,0,1-2.35-.43c-1.26-.7-2.47-1.5-3.79-2.09a32.84,32.84,0,0,0-4.88-1.8,13,13,0,0,1-6-3.32,2.15,2.15,0,0,0-.6-.45C11.2,69,10.91,67.75,10.5,66.45Zm79.72-.09-.13-3.82-.23,0-1,1.67-.4-2.56-1.14,1.77-2.15-.91c.6,2.08,1.45,3,3.23,3.34l-.83-2.12,1.3.46c.46.73.91,1.46,1.37,2.18L91,69.52a7.28,7.28,0,0,1,.17-.9A1.62,1.62,0,0,0,90.22,66.36Zm-51.46,6.7c-.61-1-1.23-2-1.82-3-.89-1.47-.88-1.48-2.56-1.2,0,0-.05.06-.09.1l1.85,3.42a2.18,2.18,0,0,0,.33.35c.69.73,1.51.37,2.3.27a2,2,0,0,0,.51,2.71,1.17,1.17,0,0,0,.85,0c.1,0,.2-.35.19-.54a1.85,1.85,0,0,0-1.08-1.82A2.8,2.8,0,0,1,38.76,73.06Zm34.36-12.6c-.44-.71-.76-1.26-1.12-1.78a1.31,1.31,0,0,0-.52-.29l-2-.89a4.06,4.06,0,0,0-1.2-.44c-1-.06-2.06,0-3.23,0,.39.79.68,1.46,1,2.09a1,1,0,0,0,.58.44c1.67.28,3.34.53,5,.77C72.07,60.4,72.5,60.41,73.12,60.46Zm.14,9.91c-.33-.43-.64-.76-.88-1.13a.87.87,0,0,0-1-.37c-.85.16-1.72.2-2.57.34a1.15,1.15,0,0,0-.73.35,2.77,2.77,0,0,1-1.88,1.35,2.66,2.66,0,0,0-.52.25l1.09,1.39a14,14,0,0,1,1.42-1,1.66,1.66,0,0,1,.92-.12c.32,0,.69.27,1,.18C71.09,71.23,72.12,70.8,73.26,70.37ZM88.5,38.53a3.12,3.12,0,0,1-3.42-.16c.09,1.07.15,1.93.23,2.79,0,.5.86,1,1.22.6C87.42,40.91,88.74,40.32,88.5,38.53ZM57.07,69.86c1.12,2.18,1.61,2.41,3.48,1.91l-.24-2.56A4.65,4.65,0,0,0,57.07,69.86ZM37.93,63.5l-1-.12c-.14,0-.32-.09-.41,0-.55.36-1.32.63-1.56,1.14A8.57,8.57,0,0,0,34.66,67C36.31,66.29,37.72,65.47,37.93,63.5Zm-3.74-3.16a3.51,3.51,0,0,0,.44-.42A1.74,1.74,0,0,1,36.34,59a.46.46,0,0,0,.38-.21c.26-.79.5-1.6.74-2.39l-.15-.13c-.48.27-1.1.43-1.4.83A6.1,6.1,0,0,0,35.37,59l-1-1.79C33.66,58.88,33.63,59.36,34.19,60.34ZM89.59,88.7c-1.07-.58-2-.89-3,.1.22.4.43.83.69,1.22s1.48.37,1.64.06S89.36,89.18,89.59,88.7ZM61.67,57c-1.51,1-1.54,1-1.05,2.25.24.6.53.67,1.84.43Zm5.93,8.31a10.9,10.9,0,0,1,1.72,0c1.11.17,1.61-.49,2.07-1.35C69.91,63.78,68.52,63.72,67.6,65.26ZM47.15,66.87c.52-1.64.36-4-.27-4.83C45.94,63.65,46.49,65.22,47.15,66.87Zm28-17,.47.56A9.47,9.47,0,0,1,76.82,52c.42.76.83.92,1.49.35.28-.24.58-.45.76-.58Zm10,8.79c.44,1.1.58,2.22,1.86,2.64.07-.71.15-1.41.2-2.1,0-.11-.13-.33-.22-.34C86.36,58.82,85.78,58.78,85.1,58.71ZM46.63,61.28l.19-.05-.49-3.29-1.4.35Zm-7.31-7c-1.29.23-1.44.4-1.68,1.84C39.43,55.94,39.28,56.07,39.32,54.31ZM56.87,59.6l-.16,0-1,2.17,1.34.54Zm22,18.06A8.71,8.71,0,0,0,78,76.9a1.07,1.07,0,0,0-.69-.18.68.68,0,0,0-.44.39c-.15.43-.22.89-.33,1.34Zm8.48-7.36V67.48L86,69.12ZM82.45,59.71,81.21,57.8l-.47,2.13ZM63.52,57.35l.56,1.93h.15l.52-2.3ZM47.11,67.74l-.16,0-1,2.47,1.15-.14Zm26.71,12.4c-2.14.52-1.69.26-1.82,2ZM65.4,71l-1.19-1.38L63.72,71ZM95,68.68l-1.44-.25L93.22,70Zm-39.55-5,.19,2.17.94-1.17Zm22.68-.43c.66-1.2-.49-1.61-.79-2.39l-.21.08Zm15.67-4.15L95,60l-.4-2Zm-56.33.46L36.59,61l.92.34Zm37.22-5.2-1.36-1.63C73.37,54,73.81,54.52,74.73,54.38ZM27.68,69.84l1.18,1.25C29.06,70.11,29,70,27.68,69.84Zm16.85-2.29,1.13-.45-.59-.89ZM40.32,53.61l-.12-.08-.82.72.67.54Zm1,3.43,1.08-.6C41.63,56.06,41.54,56.11,41.33,57ZM82,77.05h1.62l-1-.6ZM82.17,53l.64-.78-1.19-.07Zm-59,2.18a9.31,9.31,0,0,0,1.1-.19c.1,0,.14-.22.21-.33-.12,0-.26-.1-.35,0A10.15,10.15,0,0,0,23.19,55.16Z"/><path class="c" d="M73.12,60.46c-.62-.05-1.05-.06-1.48-.12-1.67-.24-3.34-.49-5-.77a1,1,0,0,1-.58-.44c-.36-.63-.65-1.3-1-2.09,1.17,0,2.2,0,3.23,0a4.06,4.06,0,0,1,1.2.44l2,.89a1.31,1.31,0,0,1,.52.29C72.36,59.2,72.68,59.75,73.12,60.46Z"/><path class="c" d="M73.26,70.37c-1.14.43-2.17.86-3.24,1.19-.27.09-.64-.16-1-.18a1.66,1.66,0,0,0-.92.12,14,14,0,0,0-1.42,1l-1.09-1.39a2.66,2.66,0,0,1,.52-.25A2.77,2.77,0,0,0,68,69.56a1.15,1.15,0,0,1,.73-.35c.85-.14,1.72-.18,2.57-.34a.87.87,0,0,1,1,.37C72.62,69.61,72.93,69.94,73.26,70.37Z"/><path class="c" d="M38.78,73.05c-.8.1-1.62.46-2.31-.27a2.18,2.18,0,0,1-.33-.35L34.29,69s.06-.1.09-.1c1.68-.28,1.67-.27,2.56,1.2.59,1,1.21,2,1.82,3Z"/><path class="c" d="M88.5,38.53c.24,1.79-1.08,2.38-2,3.23-.36.35-1.18-.1-1.22-.6-.08-.86-.14-1.72-.23-2.79A3.12,3.12,0,0,0,88.5,38.53Z"/><path class="c" d="M57.07,69.86a4.65,4.65,0,0,1,3.24-.65l.24,2.56C58.68,72.27,58.19,72,57.07,69.86Z"/><path class="c" d="M37.93,63.5c-.21,2-1.62,2.79-3.27,3.48A8.57,8.57,0,0,1,35,64.49c.24-.51,1-.78,1.56-1.14.09-.06.27,0,.41,0Z"/><path class="c" d="M88.87,64.16l-1.3-.46.83,2.12c-1.78-.38-2.63-1.26-3.23-3.34l2.15.91,1.14-1.77.4,2.56Z"/><path class="c" d="M34.19,60.34c-.56-1-.53-1.46.19-3.15l1,1.79a6.1,6.1,0,0,1,.54-1.85c.3-.4.92-.56,1.4-.83l.15.13c-.24.79-.48,1.6-.74,2.39a.46.46,0,0,1-.38.21,1.74,1.74,0,0,0-1.71.89A3.51,3.51,0,0,1,34.19,60.34Z"/><path class="c" d="M89.59,88.7c-.23.48-.42.94-.65,1.38s-1.42.27-1.64-.06-.47-.82-.69-1.22C87.56,87.81,88.52,88.12,89.59,88.7Z"/><path class="c" d="M61.67,57l.79,2.68c-1.31.24-1.6.17-1.84-.43C60.13,58,60.16,57.92,61.67,57Z"/><path class="c" d="M67.6,65.26c.92-1.54,2.31-1.48,3.79-1.33-.46.86-1,1.52-2.07,1.35A10.9,10.9,0,0,0,67.6,65.26Z"/><path class="c" d="M38.76,73.06a2.8,2.8,0,0,0,.48.37,1.85,1.85,0,0,1,1.08,1.82c0,.19-.09.52-.19.54a1.17,1.17,0,0,1-.85,0,2,2,0,0,1-.51-2.71Z"/><path class="c" d="M47.15,66.87c-.66-1.65-1.21-3.22-.27-4.83C47.51,62.84,47.67,65.23,47.15,66.87Z"/><path class="c" d="M75.12,49.92l3.95,1.81c-.18.13-.48.34-.76.58-.66.57-1.07.41-1.49-.35a9.47,9.47,0,0,0-1.23-1.48Z"/><path class="c" d="M85.1,58.71c.68.07,1.26.11,1.84.2.09,0,.23.23.22.34,0,.69-.13,1.39-.2,2.1C85.68,60.93,85.54,59.81,85.1,58.71Z"/><path class="c" d="M46.63,61.28l-1.7-3,1.4-.35.49,3.29Z"/><path class="c" d="M88.86,64.18l1-1.67.23,0,.13,3.82,0,0c-.46-.72-.91-1.45-1.37-2.18Z"/><path class="c" d="M39.32,54.31c0,1.76.11,1.63-1.68,1.84C37.88,54.71,38,54.54,39.32,54.31Z"/><path class="c" d="M56.87,59.6l.18,2.69-1.34-.54,1-2.17Z"/><path class="c" d="M78.84,77.66l-2.29.79c.11-.45.18-.91.33-1.34a.68.68,0,0,1,.44-.39,1.07,1.07,0,0,1,.69.18A8.71,8.71,0,0,1,78.84,77.66Z"/><path class="c" d="M87.32,70.3,86,69.12l1.28-1.64Z"/><path class="c" d="M82.45,59.71l-1.71.22.47-2.13Z"/><path class="c" d="M90.22,66.36a1.62,1.62,0,0,1,1,2.26,7.28,7.28,0,0,0-.17.9l-.77-3.18Z"/><path class="c" d="M63.52,57.35,64.75,57l-.52,2.3h-.15Z"/><path class="c" d="M47.11,67.74v2.31L46,70.19l1-2.47Z"/><path class="c" d="M73.82,80.14l-1.82,2C72.13,80.4,71.68,80.66,73.82,80.14Z"/><path class="c" d="M65.4,71H63.72l.49-1.38Z"/><path class="c" d="M95,68.68,93.22,70l.38-1.52Z"/><path class="c" d="M55.49,63.7l1.13,1-.94,1.17Z"/><path class="c" d="M78.17,63.27l-1-2.31.21-.08C77.68,61.66,78.83,62.07,78.17,63.27Z"/><path class="c" d="M93.84,59.12,94.62,58l.4,2Z"/><path class="c" d="M37.51,59.58v1.73L36.59,61Z"/><path class="c" d="M74.73,54.38c-.92.14-1.36-.42-1.36-1.63Z"/><path class="c" d="M27.68,69.84c1.3.18,1.38.27,1.18,1.25Z"/><path class="c" d="M44.53,67.55l.54-1.34.59.89Z"/><path class="c" d="M40.32,53.61l-.27,1.18-.67-.54.82-.72Z"/><path class="c" d="M41.33,57c.21-.93.3-1,1.08-.6Z"/><path class="c" d="M82,77.05l.64-.6,1,.6Z"/><path class="c" d="M82.17,53l-.55-.85,1.19.07Z"/><path class="c" d="M23.19,55.16a10.15,10.15,0,0,1,1-.57c.09-.05.23,0,.35,0-.07.11-.11.3-.21.33A9.31,9.31,0,0,1,23.19,55.16Z"/></g><path class="f" d="M113.89,98.46c-3.07,2-6.33,3.77-9.51,5.61q-11.82,6.87-23.68,13.67-11.17,6.44-22.35,12.9a2.07,2.07,0,0,1-2.33,0q-11.31-6.56-22.64-13.07L5.81,101.66c-1.39-.8-2.76-1.63-4.17-2.4A2,2,0,0,1,.5,97.33Q.53,65.66.5,34a1.89,1.89,0,0,1,1.08-1.83Q20.36,21.36,39.1,10.53c5.4-3.11,10.81-6.21,16.18-9.38A3.14,3.14,0,0,1,58.88,1Q78.4,12.39,98,23.63l15.92,9.17Zm-2.18-32.61c0-9.92,0-19.84.05-29.77a3,3,0,0,0-1.78-3q-14.78-8.43-29.49-17Q69.32,9.7,58.13,3.24a1.64,1.64,0,0,0-1.9,0c-3.81,2.24-7.64,4.43-11.46,6.63Q24.44,21.6,4.1,33.29a2.51,2.51,0,0,0-1.45,2.5q.06,29.93,0,59.86a2.43,2.43,0,0,0,1.4,2.42c5,2.81,9.94,5.68,14.89,8.55q18.66,10.77,37.31,21.57a1.7,1.7,0,0,0,1.92,0q11.77-6.84,23.58-13.64Q96,106.28,110.37,98a2.32,2.32,0,0,0,1.37-2.31C111.69,85.77,111.71,75.81,111.71,65.85Z"/></g></svg>